# xmcd
#
# Track frame offsets:
#	150
#	13447
#	27270
#	40695
#	54297
#	68905
#	82522
#	97042
#	111100
#	125205
#	140040
#	155175
#	170817
#	185837
#	200340
#	214855
#	228115
#	240767
#	255090
#	268857
#	281832
#	295362
#	307965
#	320747
#	334255
#	347360
#
# Disc length: 4808 seconds
#
# Revision: 0
# Processed by: cddbd v1.5.2PL0 Copyright (c) Steve Scherf et al.
# Submitted via: EZCDAudioConverter 2.2.2.1
#
DISCID=8512c61a
DTITLE=Goebel Reeves - Hobo's Lullaby
DYEAR=1900
DGENRE=Country
TTITLE0=The Tramp's Mother
TTITLE1=I Learned About Women From Her
TTITLE2=The Drifter [part 1]
TTITLE3=The Drifter [part 2]
TTITLE4=When The Clock Struck Seventeen
TTITLE5=Blue Undertaker's Blues [part 1]
TTITLE6=Blue Undertaker's Blues [part 2]
TTITLE7=Fortunes Galore
TTITLE8=My Mountain Gal
TTITLE9=A Song Of The Sea
TTITLE10=In The Land Of The Never Was
TTITLE11=The Texas Drifter's Warning
TTITLE12=Cowboy's Lullaby
TTITLE13=Hobo's Lullaby
TTITLE14=The Drifter's Buddy (The Drifter's Prayer)
TTITLE15=The Cowboy's Prayer
TTITLE16=Happy Days (I'll Never Leave Old Dixieland Again)
TTITLE17=The Wayward Son
TTITLE18=Reckless Tex
TTITLE19=The Soldier's Return
TTITLE20=Miss Jackson, Tennessee
TTITLE21=My Mountain Girl
TTITLE22=Cold And Hungry
TTITLE23=Meet Me At The Crossroads, Pal
TTITLE24=The Yodeling Teacher
TTITLE25=The Kidnapped Baby
EXTD=
EXTT0=
EXTT1=
EXTT2=
EXTT3=
EXTT4=
EXTT5=
EXTT6=
EXTT7=
EXTT8=
EXTT9=
EXTT10=
EXTT11=
EXTT12=
EXTT13=
EXTT14=
EXTT15=
EXTT16=
EXTT17=
EXTT18=
EXTT19=
EXTT20=
EXTT21=
EXTT22=
EXTT23=
EXTT24=
EXTT25=
PLAYORDER=
